<?xml version="1.0" standalone="no"?>
<!DOCTYPE svg PUBLIC "-//W3C//DTD SVG 20010904//EN"
 "http://www.w3.org/TR/2001/REC-SVG-20010904/DTD/svg10.dtd">
<svg version="1.0" xmlns="http://www.w3.org/2000/svg"
 width="16.000000pt" height="16.000000pt" viewBox="0 0 16.000000 16.000000"
 preserveAspectRatio="xMidYMid meet">
<metadata>
Created by potrace 1.11, written by Peter Selinger 2001-2013
</metadata>
<g transform="translate(0.000000,16.000000) scale(0.001600,-0.001600)"
fill="#000000" stroke="none">
<path d="M4650 8870 c-511 -13 -1049 -53 -1420 -105 -474 -67 -1161 -235
-1353 -331 -57 -29 -271 -181 -355 -252 -115 -98 -301 -354 -383 -527 -119
-253 -229 -664 -280 -1040 -61 -461 -17 -1148 104 -1621 l33 -132 -28 -138
c-50 -249 -96 -546 -108 -699 -16 -200 -8 -609 14 -730 83 -450 190 -700 451
-1052 111 -148 239 -275 386 -380 139 -99 170 -117 352 -200 177 -81 266 -112
482 -168 494 -129 719 -162 1470 -215 237 -17 606 -45 820 -62 341 -28 434
-32 740 -32 480 0 853 25 1355 89 380 49 643 100 816 159 110 37 355 147 479
214 238 131 563 400 750 623 234 279 315 459 399 885 47 239 56 321 56 500 0
325 -54 641 -159 931 l-51 138 30 79 c36 93 91 308 120 466 91 508 89 1120 -6
1620 -51 273 -121 520 -199 706 -85 202 -237 426 -386 569 -164 157 -418 319
-564 360 -33 9 -100 29 -150 45 -94 31 -525 134 -705 169 -311 61 -665 94
-1295 121 -344 14 -1058 19 -1415 10z m1250 -70 c717 -25 1135 -62 1480 -131
158 -31 587 -134 655 -157 33 -12 94 -30 135 -42 147 -43 360 -171 524 -316
134 -118 290 -329 376 -508 125 -260 240 -714 282 -1116 17 -168 17 -754 0
-920 -32 -297 -94 -597 -162 -778 l-41 -108 49 -130 c113 -297 166 -600 165
-939 0 -171 -4 -221 -26 -347 -76 -425 -138 -612 -269 -805 -164 -243 -468
-535 -758 -726 -183 -121 -521 -272 -718 -322 -274 -69 -883 -151 -1387 -187
-278 -20 -996 -17 -1225 4 -102 10 -439 36 -750 58 -957 68 -1126 91 -1625
217 -212 53 -333 92 -418 132 -34 16 -114 54 -178 84 -323 151 -577 397 -804
779 -210 351 -308 779 -291 1268 9 274 34 464 112 869 l36 184 -36 146 c-96
388 -149 945 -126 1319 29 463 145 972 295 1290 113 240 304 475 492 608 37
27 88 64 112 82 106 80 290 147 635 232 514 126 865 182 1426 225 207 15 556
34 730 38 302 8 1060 6 1310 -3z"/>
<path d="M4705 8480 c-1009 -23 -1708 -110 -2375 -296 -277 -77 -521 -237
-679 -444 -119 -156 -184 -283 -260 -509 -168 -502 -209 -1041 -131 -1711 32
-277 81 -499 125 -574 21 -35 22 -42 10 -75 -23 -65 -103 -496 -131 -706 -24
-175 -30 -633 -10 -782 36 -274 111 -486 254 -717 195 -316 406 -507 713 -647
179 -82 230 -101 405 -148 455 -123 637 -148 1609 -216 275 -20 610 -45 745
-57 288 -25 804 -30 1135 -10 569 35 1251 127 1465 198 120 40 383 160 500
229 169 99 414 305 562 471 204 231 270 357 333 639 79 355 86 640 24 1000
-21 117 -43 191 -146 478 l-50 139 53 126 c92 222 137 418 170 749 22 225 23
678 1 898 -64 629 -232 1080 -506 1353 -104 104 -238 202 -341 249 -250 115
-804 245 -1270 297 -464 52 -1476 83 -2205 66z m4 -3139 l364 -6 -83 -90 c-45
-49 -142 -159 -214 -244 -72 -85 -200 -236 -285 -335 -84 -100 -239 -288 -345
-418 -105 -130 -195 -237 -201 -238 -5 0 -90 53 -188 118 l-178 117 6 170 c3
94 10 218 16 276 9 110 39 573 39 621 0 27 1 27 73 31 120 5 611 5 996 -2z
m1710 -58 c-128 -131 -643 -750 -854 -1027 -38 -51 -84 -108 -100 -128 l-31
-37 -65 52 c-37 29 -99 79 -139 111 l-72 60 -34 -19 c-19 -10 -72 -49 -117
-86 -45 -38 -152 -122 -238 -188 -85 -66 -205 -168 -266 -226 -61 -58 -114
-105 -117 -105 -4 0 -17 9 -29 21 -12 11 -101 75 -197 141 -96 66 -176 122
-178 123 -4 3 228 290 463 575 94 113 220 266 280 340 60 74 168 205 239 290
l130 155 151 5 c82 3 395 7 695 8 l544 2 -65 -67z m179 5 c19 -103 56 -609 64
-873 l3 -80 -250 -245 c-138 -135 -299 -290 -358 -344 l-109 -99 -56 55 c-47
45 -129 115 -441 374 -2 2 23 32 55 66 32 35 183 212 335 393 151 182 355 422
453 534 97 113 187 222 198 243 19 33 26 38 58 38 l37 0 11 -62z m-1543 -1873
c101 -50 185 -68 276 -58 31 3 69 3 83 -1 33 -8 66 -44 66 -72 0 -19 -7 -24
-47 -31 -88 -14 -273 -8 -338 11 -120 37 -256 119 -240 146 11 18 68 50 90 50
11 0 61 -20 110 -45z"/>
</g>
</svg>
